<svg xmlns="http://www.w3.org/2000/svg" xmlns:xlink="http://www.w3.org/1999/xlink" width="23.999" height="32.243" viewBox="0 0 23.999 32.243">
  <defs>
    <filter id="pin_irrigation" x="0" y="0" width="23.999" height="32.243" filterUnits="userSpaceOnUse">
      <feOffset dx="2" dy="2" input="SourceAlpha"/>
      <feGaussianBlur stdDeviation="1" result="blur"/>
      <feFlood flood-opacity="0.851"/>
      <feComposite operator="in" in2="blur"/>
      <feComposite in="SourceGraphic"/>
    </filter>
  </defs>
  <g transform="matrix(1, 0, 0, 1, 0, 0)" filter="url(#pin_irrigation)">
    <g id="pin_irrigation-2" data-name="pin_irrigation" transform="translate(33.5 858.5)" fill="#00ca00">
      <path d="M -23.49891090393066 -833.1279907226563 L -24.18612098693848 -834.69873046875 L -26.94320297241211 -841.00048828125 C -29.87306022644043 -842.3451538085938 -31.74960136413574 -845.2559814453125 -31.74960136413574 -848.500244140625 C -31.74960136413574 -853.0491333007813 -28.04880142211914 -856.7499389648438 -23.49990081787109 -856.7499389648438 C -18.95100021362305 -856.7499389648438 -15.25020122528076 -853.0491333007813 -15.25020122528076 -848.500244140625 C -15.25020122528076 -845.2566528320313 -17.12620544433594 -842.3460693359375 -20.05523872375488 -841.0010986328125 L -22.81186103820801 -834.6987915039063 L -23.49891090393066 -833.1279907226563 Z" stroke="none"/>
      <path d="M -23.49900054931641 -834.9993286132813 L -20.62477111816406 -841.570556640625 C -17.90959167480469 -842.6986083984375 -16.00020027160645 -845.3762817382813 -16.00020027160645 -848.500244140625 C -16.00020027160645 -852.6420288085938 -19.35810089111328 -855.9999389648438 -23.49990081787109 -855.9999389648438 C -27.64170074462891 -855.9999389648438 -30.99960136413574 -852.6420288085938 -30.99960136413574 -848.500244140625 C -30.99960136413574 -845.375732421875 -29.0896110534668 -842.69775390625 -26.37373161315918 -841.5700073242188 L -23.49900054931641 -834.9993286132813 M -23.49882125854492 -831.2566528320313 L -24.87322998046875 -834.3980712890625 L -27.51854705810547 -840.4443969726563 C -30.56418037414551 -841.96142578125 -32.49959945678711 -845.058837890625 -32.49959945678711 -848.500244140625 C -32.49959945678711 -853.4627075195313 -28.46235084533691 -857.4999389648438 -23.49990081787109 -857.4999389648438 C -18.53745079040527 -857.4999389648438 -14.50020122528076 -853.4627075195313 -14.50020122528076 -848.500244140625 C -14.50020122528076 -845.0595092773438 -16.4350414276123 -841.9624633789063 -19.47981643676758 -840.4451293945313 L -22.12471008300781 -834.398193359375 L -23.49882125854492 -831.2566528320313 Z" stroke="none" fill="#fff"/>
    </g>
  </g>
</svg>
